<svg width="20" height="20" viewBox="0 0 20 20" fill="none" xmlns="http://www.w3.org/2000/svg">
<g id="Bell">
<path id="Vector" d="M11.1251 4C9.73267 4 8.39731 4.55312 7.41275 5.53769C6.42818 6.52226 5.87506 7.85761 5.87506 9.25V12.3878L5.25643 13.0064C5.1341 13.1287 5.05079 13.2846 5.01705 13.4543C4.9833 13.6241 5.00063 13.8 5.06684 13.9598C5.13305 14.1197 5.24517 14.2563 5.38903 14.3525C5.53289 14.4486 5.70203 14.5 5.87506 14.5H16.3751C16.5481 14.5 16.7172 14.4486 16.8611 14.3525C17.0049 14.2563 17.1171 14.1197 17.1833 13.9598C17.2495 13.8 17.2668 13.6241 17.2331 13.4543C17.1993 13.2846 17.116 13.1287 16.9937 13.0064L16.3751 12.3878V9.25C16.3751 7.85761 15.8219 6.52226 14.8374 5.53769C13.8528 4.55312 12.5174 4 11.1251 4ZM11.1251 18C10.4289 18 9.76119 17.7234 9.2689 17.2312C8.77662 16.7389 8.50006 16.0712 8.50006 15.375H13.7501C13.7501 16.0712 13.4735 16.7389 12.9812 17.2312C12.4889 17.7234 11.8213 18 11.1251 18Z" fill="#71DDB1"/>
</g>
</svg>
