<svg width="20" height="20" viewBox="0 0 20 20" fill="none" xmlns="http://www.w3.org/2000/svg">
<g id="calories 1">
<g id="Group">
<path id="Vector" d="M10.0165 13.9321C9.43316 14.382 8.22876 15.4945 8.22876 17.0104C8.22876 18.0111 9.0303 18.8253 10.0156 18.8253C11.0009 18.8253 11.8024 18.0111 11.8024 17.0104C11.8024 15.5748 10.5973 14.41 10.0165 13.9321Z" fill="white"/>
<path id="Vector_2" d="M14.2034 3.48099C13.9867 3.23267 13.6127 3.21763 13.3767 3.44083L10.6556 6.01423V0.624974C10.6556 0.173841 10.1188 -0.163229 9.71681 0.0831771C9.64072 0.129818 7.83239 1.24872 6.00521 3.28064C3.78358 5.75126 2.27051 8.75942 2.27051 12.133C2.27051 16.4709 5.74495 20 10.0156 20C8.3926 20 7.07225 18.6588 7.07225 17.0104C7.07225 14.3466 9.6246 12.7693 9.73324 12.7034C9.92368 12.5881 10.1621 12.5935 10.3473 12.7171C10.4539 12.7884 12.9589 14.4908 12.9589 17.0103C12.9589 18.6588 11.6386 20 10.0156 20C14.2862 20 17.7607 16.4709 17.7607 12.133C17.7607 8.85747 16.3342 5.92157 14.2034 3.48099Z" fill="white"/>
</g>
</g>
</svg>
