<svg width="17" height="19" viewBox="0 0 17 19" fill="none" xmlns="http://www.w3.org/2000/svg">
<g id="Icons / More / Horizontal" opacity="0.2">
<path id="Color" fill-rule="evenodd" clip-rule="evenodd" d="M2.1073 9.26667C2.1073 8.41414 2.7367 7.72223 3.51221 7.72223C4.28772 7.72223 4.91711 8.41414 4.91711 9.26667C4.91711 10.1192 4.28772 10.8111 3.51221 10.8111C2.7367 10.8111 2.1073 10.1192 2.1073 9.26667ZM8.42938 7.72223C7.65387 7.72223 7.02448 8.41414 7.02448 9.26667C7.02448 10.1192 7.65387 10.8111 8.42938 10.8111C9.20489 10.8111 9.83429 10.1192 9.83429 9.26667C9.83429 8.41414 9.20489 7.72223 8.42938 7.72223ZM13.3466 7.72223C12.571 7.72223 11.9416 8.41414 11.9416 9.26667C11.9416 10.1192 12.571 10.8111 13.3466 10.8111C14.1221 10.8111 14.7515 10.1192 14.7515 9.26667C14.7515 8.41414 14.1221 7.72223 13.3466 7.72223Z" fill="black"/>
</g>
</svg>
