<svg width="20" height="20" viewBox="0 0 20 20" fill="none" xmlns="http://www.w3.org/2000/svg">
<g id="drops 1" clip-path="url(#clip0_1_299)">
<path id="Vector" d="M14.66 1.27961L7.37994 2.90481C6.90001 3.01192 6.83408 3.65165 7.27537 3.86774L8.64771 4.53985C11.5951 5.98329 13.3663 8.22486 13.3621 8.22084C15.2801 10.4964 19.0579 9.77475 19.864 6.54959C20.6561 3.46751 17.8652 0.564066 14.66 1.27961Z" fill="white"/>
<path id="Vector_2" d="M14.7562 5.32492C14.7616 5.32711 12.2866 3.90019 9.01431 3.65008L7.49072 3.53359C7.25357 3.51547 7.09044 3.36105 7.03095 3.17523C6.91693 3.41074 6.98982 3.72789 7.27537 3.86773L8.64771 4.5398C11.5951 5.98324 13.3663 8.22481 13.362 8.22079C15.2801 10.4964 19.0579 9.7747 19.864 6.5495C20.0999 5.63149 20.0178 4.72938 19.7017 3.93394C18.7371 5.58738 16.595 6.30883 14.7562 5.32492Z" fill="white"/>
<path id="Vector_3" d="M16.647 13.1252L12.2213 10.7208C11.8377 10.5124 11.4132 10.884 11.5573 11.298L11.8164 12.0421C12.5989 14.2896 12.6106 16.2269 12.6065 16.1389C12.7046 18.2684 15.0888 19.5754 16.9228 18.3689C18.8451 17.0867 18.6782 14.2287 16.647 13.1252Z" fill="white"/>
<path id="Vector_4" d="M14.2507 15.6716C14.2765 15.7559 13.7828 13.8826 12.4654 11.9006L12.0292 11.2445C11.8967 11.0451 11.9317 10.816 12.0596 10.6662C11.7302 10.6177 11.4337 10.9421 11.5576 11.2981L11.8167 12.0421C12.5991 14.2896 12.6108 16.2269 12.6068 16.1389C12.7049 18.2684 15.0891 19.5755 16.923 18.369C17.268 18.1389 17.5453 17.8578 17.757 17.5455C16.3536 17.9765 14.7247 17.2168 14.2507 15.6716Z" fill="white"/>
<path id="Vector_5" d="M7.32176 11.3043C5.62917 9.86993 3.73866 8.41833 2.06589 5.36063C1.73874 4.88305 1.00503 5.05262 0.938345 5.62781L0.0321327 13.4413C-0.368806 16.8985 3.05538 19.5015 6.22199 18.3083C9.16266 17.2007 9.75699 13.2903 7.32176 11.3043Z" fill="white"/>
<path id="Vector_6" d="M2.581 13.2462L1.50784 5.45384C1.48866 5.3145 1.51378 5.18872 1.56874 5.08329C1.2728 5.07392 0.979361 5.27392 0.938306 5.62771L0.0321327 13.4413C-0.368806 16.8984 3.05538 19.5014 6.22199 18.3082C6.88156 18.0598 7.42265 17.6701 7.83848 17.193C5.44527 17.5402 2.9514 15.9353 2.581 13.2462Z" fill="white"/>
</g>
<defs>
<clipPath id="clip0_1_299">
<rect width="20" height="20" fill="white"/>
</clipPath>
</defs>
</svg>
