<svg width="23" height="22" viewBox="0 0 23 22" fill="none" xmlns="http://www.w3.org/2000/svg">
<g id="feet 1" clip-path="url(#clip0_1_249)">
<path id="Vector" d="M19.6627 6.90432C19.6429 6.87072 19.623 6.83763 19.6029 6.80506C18.6778 5.30695 16.8867 4.54263 15.1456 4.90296C14.7468 4.98551 14.1537 5.15399 13.5933 5.4879C13.0272 5.82507 12.631 6.24926 12.4154 6.7486C12.058 7.57635 12.2151 8.56188 12.8822 9.67808C13.7897 11.1968 13.5713 12.7592 13.3784 14.1377C13.2616 14.9722 13.1607 15.6929 13.316 16.307C13.4941 17.0108 14.0021 17.4653 14.8696 17.6964C15.0233 17.7376 15.1817 17.7585 15.3407 17.7586C16.1638 17.7586 17.0108 17.199 17.8168 16.1149C19.6413 13.6607 20.8514 8.92854 19.6627 6.90432Z" fill="white"/>
<path id="Vector_2" d="M13.3249 4.764C13.3998 4.764 13.4745 4.75695 13.548 4.74294C13.9405 4.66827 14.2711 4.40779 14.4789 4.00955C14.6782 3.62761 14.7403 3.16122 14.6541 2.69639C14.4726 1.7185 13.6812 1.04561 12.89 1.19605C12.4975 1.27073 12.167 1.5312 11.9592 1.92944C11.7599 2.31139 11.6977 2.77777 11.784 3.2426C11.9482 4.12836 12.613 4.764 13.3249 4.764Z" fill="white"/>
<path id="Vector_3" d="M16.0487 4.28785C16.0737 4.28968 16.0986 4.2906 16.1234 4.2906C16.7552 4.2906 17.2993 3.70193 17.3539 2.93983C17.3843 2.57721 17.2901 2.21508 17.0871 1.91481C16.8793 1.61683 16.5834 1.43937 16.2543 1.41522C15.5914 1.36628 15.0058 1.97128 14.9491 2.76323C14.9187 3.12583 15.0129 3.48794 15.2158 3.78821C15.4237 4.08633 15.7195 4.26366 16.0487 4.28785Z" fill="white"/>
<path id="Vector_4" d="M18.3843 4.49937C18.4028 4.50074 18.4213 4.50142 18.4397 4.50139C18.9028 4.50139 19.3013 4.0751 19.3408 3.52286C19.3625 3.26152 19.2944 3.00062 19.1479 2.78436C19.0793 2.68028 18.9884 2.59321 18.882 2.52962C18.7756 2.46603 18.6564 2.42756 18.5333 2.41706C18.0472 2.38148 17.6178 2.81938 17.5767 3.39353C17.555 3.65495 17.6231 3.91596 17.7696 4.13229C17.8383 4.23633 17.9292 4.32335 18.0356 4.3869C18.142 4.45045 18.2612 4.48889 18.3843 4.49937Z" fill="white"/>
<path id="Vector_5" d="M19.222 5.12448C19.2573 5.23011 19.3155 5.32633 19.3925 5.40599C19.4695 5.48565 19.5632 5.5467 19.6667 5.58459C19.7395 5.61034 19.8161 5.62341 19.8932 5.62326C20.2356 5.62326 20.5735 5.36915 20.7091 4.9762C20.7869 4.75883 20.788 4.5209 20.7124 4.30275C20.6772 4.19712 20.6189 4.1009 20.542 4.02123C20.465 3.94156 20.3713 3.88051 20.2678 3.8426C19.8587 3.69779 19.3912 3.97069 19.2254 4.45086C19.1476 4.66828 19.1464 4.90629 19.222 5.12448Z" fill="white"/>
<path id="Vector_6" d="M21.4389 5.62845C21.1065 5.347 20.5739 5.43543 20.2516 5.82563C20.1032 6.00126 20.0193 6.22347 20.0141 6.45461C20.0103 6.56604 20.0313 6.67691 20.0757 6.77895C20.12 6.881 20.1865 6.9716 20.2702 7.04401C20.4002 7.15252 20.5639 7.21082 20.7324 7.20859C20.8719 7.20521 21.009 7.17111 21.1343 7.10864C21.2595 7.04617 21.3698 6.95683 21.4575 6.84683C21.6059 6.67119 21.6898 6.44894 21.695 6.21777C21.6988 6.10635 21.6777 5.9955 21.6334 5.89346C21.5891 5.79143 21.5226 5.70084 21.4389 5.62845Z" fill="white"/>
<path id="Vector_7" d="M6.86494 8.84478C5.09447 8.99904 3.59077 10.2464 3.12316 11.9486C3.11299 11.9856 3.10309 12.0231 3.09348 12.061C2.54144 14.2597 4.54409 17.901 6.70351 19.688C7.61132 20.4391 8.49345 20.8252 9.27082 20.8252C9.59065 20.8278 9.90682 20.7563 10.1953 20.6163C11.0149 20.2147 11.4131 19.7113 11.4486 19.0319C11.4794 18.4418 11.2304 17.8022 10.9421 17.0617C10.4691 15.8468 9.93286 14.4698 10.3726 12.7742C10.6998 11.5125 10.5745 10.5223 10.0001 9.83113C9.65358 9.41411 9.15476 9.12111 8.51749 8.96024C7.88641 8.80069 7.27051 8.80937 6.86494 8.84478ZM3.92204 13.4621C3.91322 13.41 3.90518 13.3582 3.89791 13.3067C3.88996 13.2503 3.90445 13.193 3.93819 13.1474C3.97194 13.1019 4.02217 13.0717 4.07784 13.0637C4.13351 13.0556 4.19006 13.0703 4.23505 13.1045C4.28004 13.1387 4.30978 13.1896 4.31773 13.246C4.32443 13.2935 4.33186 13.3413 4.34003 13.3894C4.34474 13.4172 4.344 13.4457 4.33785 13.4732C4.33171 13.5007 4.32027 13.5268 4.30419 13.5498C4.28812 13.5728 4.26772 13.5924 4.24417 13.6075C4.22062 13.6225 4.19438 13.6327 4.16693 13.6375C4.13949 13.6423 4.11139 13.6415 4.08423 13.6353C4.05707 13.6291 4.0314 13.6175 4.00866 13.6012C3.98592 13.5849 3.96657 13.5642 3.95172 13.5404C3.93687 13.5165 3.9268 13.4899 3.92208 13.4621H3.92204ZM5.50038 16.7549C5.47664 16.7697 5.45026 16.7796 5.42276 16.784C5.39526 16.7884 5.36717 16.7873 5.34009 16.7807C5.31302 16.7741 5.28749 16.7622 5.26496 16.7456C5.24243 16.729 5.22335 16.7081 5.2088 16.684C4.71723 15.8715 4.33592 15.0294 4.10625 14.2489C4.09829 14.2218 4.09566 14.1935 4.09852 14.1654C4.10138 14.1373 4.10966 14.1101 4.1229 14.0853C4.14964 14.0352 4.19493 13.9979 4.24882 13.9816C4.30271 13.9653 4.36078 13.9713 4.41025 13.9984C4.45972 14.0255 4.49655 14.0714 4.51262 14.126C4.73207 14.8714 5.09782 15.6783 5.57047 16.4595C5.58503 16.4836 5.59476 16.5103 5.59911 16.5382C5.60346 16.566 5.60235 16.5945 5.59584 16.622C5.58933 16.6494 5.57755 16.6753 5.56117 16.6981C5.54479 16.7209 5.52413 16.7403 5.50038 16.755V16.7549Z" fill="white"/>
<path id="Vector_8" d="M8.2291 8.23896C8.27017 8.23897 8.31121 8.23686 8.35207 8.23264C8.74933 8.19157 9.10032 7.96009 9.34034 7.58094C9.57051 7.21729 9.6711 6.75783 9.62373 6.28728C9.52391 5.29749 8.79144 4.55938 7.99006 4.64235C7.59276 4.68343 7.24177 4.91486 7.00176 5.29406C6.77158 5.65774 6.67099 6.11717 6.71836 6.58772C6.81288 7.52671 7.47725 8.239 8.2291 8.23896Z" fill="white"/>
<path id="Vector_9" d="M5.46083 8.5812C5.58573 8.58139 5.70962 8.55868 5.82654 8.51417C6.13542 8.39648 6.36933 8.14142 6.48535 7.79586C6.59585 7.44962 6.58479 7.07531 6.45406 6.73638C6.17791 5.99324 5.44718 5.58147 4.82505 5.81848C4.51616 5.93613 4.28225 6.19124 4.16623 6.53675C4.05572 6.883 4.06676 7.25733 4.19749 7.59627C4.42075 8.19702 4.94102 8.5812 5.46083 8.5812Z" fill="white"/>
<path id="Vector_10" d="M3.37488 9.43737C3.46748 9.43749 3.55934 9.42065 3.64602 9.38765C3.76113 9.34224 3.86466 9.27113 3.9489 9.17959C4.03315 9.08805 4.09594 8.97844 4.13262 8.85892C4.21251 8.60937 4.20476 8.3395 4.1107 8.09507C3.91055 7.55632 3.37636 7.25941 2.92004 7.43335C2.80492 7.47876 2.70138 7.54989 2.61713 7.64143C2.53288 7.73298 2.47008 7.84259 2.43339 7.96212C2.35353 8.21167 2.36127 8.48151 2.45531 8.72593C2.61671 9.1603 2.99514 9.43737 3.37488 9.43737Z" fill="white"/>
<path id="Vector_11" d="M2.30512 10.9288C2.4538 10.9302 2.59912 10.8839 2.72022 10.7965C2.80886 10.7304 2.88165 10.645 2.93318 10.5464C2.9847 10.4479 3.01364 10.3389 3.01783 10.2275C3.02923 9.99658 2.96148 9.76876 2.82607 9.58267C2.53267 9.16987 2.00764 9.04255 1.65614 9.29873C1.56751 9.3648 1.49472 9.45027 1.4432 9.54878C1.39167 9.64729 1.36273 9.75631 1.35854 9.86772C1.34712 10.0987 1.41489 10.3265 1.55034 10.5126C1.74116 10.7811 2.02982 10.9288 2.30512 10.9288Z" fill="white"/>
<path id="Vector_12" d="M1.35639 12.5211C1.51973 12.6327 1.71191 12.6932 1.90893 12.6948C2.16867 12.6948 2.40983 12.5828 2.55002 12.3693C2.61001 12.2758 2.64841 12.1698 2.66235 12.0592C2.67629 11.9486 2.66542 11.8362 2.63055 11.7305C2.56084 11.5103 2.41816 11.3213 2.22668 11.1955C1.80843 10.9139 1.27298 10.982 1.033 11.3473C0.973036 11.4408 0.934648 11.5468 0.920699 11.6574C0.906749 11.768 0.917596 11.8803 0.952433 11.9861C1.02214 12.2063 1.16482 12.3953 1.3563 12.521L1.35639 12.5211Z" fill="white"/>
</g>
<defs>
<clipPath id="clip0_1_249">
<rect width="21.7117" height="22" fill="white" transform="translate(0.449585)"/>
</clipPath>
</defs>
</svg>
