<svg width="9" height="12" viewBox="0 0 9 12" fill="none" xmlns="http://www.w3.org/2000/svg">
<g id="Location Icon">
<path id="Vector" d="M4.75357 0.322556C2.63701 0.322556 0.925171 2.0344 0.925171 4.15096C0.925171 7.02226 4.75357 11.2608 4.75357 11.2608C4.75357 11.2608 8.58198 7.02226 8.58198 4.15096C8.58198 2.0344 6.87013 0.322556 4.75357 0.322556ZM2.019 4.15096C2.019 2.64147 3.24409 1.41638 4.75357 1.41638C6.26306 1.41638 7.48815 2.64147 7.48815 4.15096C7.48815 5.72607 5.91303 8.08327 4.75357 9.55447C3.61599 8.09421 2.019 5.70966 2.019 4.15096Z" fill="#A3AED0"/>
<path id="Vector_2" d="M4.75388 5.51781C5.50901 5.51781 6.12117 4.90565 6.12117 4.15052C6.12117 3.39539 5.50901 2.78323 4.75388 2.78323C3.99875 2.78323 3.3866 3.39539 3.3866 4.15052C3.3866 4.90565 3.99875 5.51781 4.75388 5.51781Z" fill="#A3AED0"/>
</g>
</svg>
