<svg width="29" height="31" viewBox="0 0 29 31" fill="none" xmlns="http://www.w3.org/2000/svg">
<g id="caduceus">
<path id="Combined Shape" fill-rule="evenodd" clip-rule="evenodd" d="M21.2105 0.962968H28.2236C28.2236 0.962968 28.4903 8.66762 21.2105 8.66762C19.8577 8.66762 18.663 8.02138 17.9385 7.03326C17.6494 6.63841 17.062 6.58833 16.7108 6.9331L15.2069 8.40758V13.3935L13.2057 14.0243V3.59217C12.6083 3.25895 12.2052 2.63873 12.2052 1.92604C12.2052 0.828133 13.1597 -0.0559774 14.3154 0.00277595C15.349 0.0547799 16.1855 0.887838 16.2075 1.88368C16.2235 2.61368 15.8163 3.2522 15.2069 3.59217V5.20919L18.2217 2.25253V2.25446C18.9551 1.46185 20.0218 0.962968 21.2105 0.962968ZM10.4645 7.00914C10.7553 6.61281 11.3459 6.56353 11.6991 6.90862L12.2052 7.40449V4.19433L10.1798 2.21177V2.21273C9.4423 1.41818 8.36974 0.917465 7.17451 0.917465H0.122494C0.122494 0.917465 0.547089 8.65047 7.17451 8.65047C8.53476 8.65047 9.73609 8.00185 10.4645 7.00914ZM11.0845 14.737L11.0734 14.7409C10.2277 15.0161 9.4829 15.3966 8.85795 15.8592C7.5345 14.8529 7.31779 13.694 7.31779 13.045C7.31779 12.1265 7.5335 11.2525 8.54447 10.4161C9.60181 9.51703 10.9776 9.4639 11.4807 10.2539C11.9433 10.9802 11.4907 12.141 10.4706 12.848C10.1159 13.0933 9.73987 13.2497 9.38007 13.3212C9.50504 13.7085 9.88504 14.1025 10.4646 14.4347C10.6692 14.5516 10.8355 14.6375 11.0845 14.737ZM16.9961 10.6724C17.4795 9.714 18.8029 9.7807 19.8181 10.8689C20.7908 11.8823 20.9971 12.9412 21 14.0552C21 14.9539 20.7288 16.6588 18.9085 17.9728C18.4929 18.2724 18.18 18.4538 17.558 18.7241C18.8891 19.5361 19.6592 20.8186 19.6592 22.2825C19.6592 24.4016 18.2003 25.6127 16.5515 26.3323C17.3671 27.0379 17.7973 27.9588 17.7973 28.9078C17.7973 29.5244 17.7334 30.1715 16.9099 30.9251L16.9089 30.9239C16.8605 30.9707 16.8004 31 16.7336 31C16.5786 31 16.4526 30.8479 16.4526 30.6607C16.4526 30.5986 16.4672 30.5413 16.4914 30.491L16.4904 30.4898C17.1133 29.2272 16.4129 28.4304 15.2998 27.8664V29.8287C15.2998 30.4746 14.8658 30.9988 14.331 30.9988C13.7963 30.9988 13.3623 30.4746 13.3623 29.8287V27.8652C12.2037 28.4526 11.6069 29.1313 12.1688 30.4898C12.193 30.5401 12.2075 30.5975 12.2075 30.6595C12.2075 30.8467 12.0816 30.9988 11.9266 30.9988C11.8598 30.9988 11.7987 30.9696 11.7503 30.9228L11.7493 30.9239C10.8988 30.2031 10.8425 29.4777 10.8425 28.8926C10.8425 27.8734 11.2805 27.0063 12.0952 26.3241C12.4861 25.9984 12.7252 25.8704 13.7104 25.3428L13.7107 25.3426L13.7115 25.3422C13.8906 25.2463 14.0944 25.1371 14.3282 25.0112C14.6815 24.8208 15.0009 24.6517 15.2893 24.4991C17.1542 23.5123 17.7188 23.2135 17.7188 22.2801C17.7188 21.8355 17.1938 21.1708 16.1921 20.759C15.9582 20.6645 15.7345 20.5752 15.52 20.4896L15.2979 20.4009V21.8928L13.3604 22.9366V20.3997C13.0785 20.5121 12.7801 20.6314 12.4633 20.759C11.4616 21.1697 10.9365 21.8355 10.9365 22.2801C10.9365 22.8874 11.1729 23.242 11.9392 23.7101C11.2736 24.1044 10.704 24.597 10.2477 25.1645C9.5221 24.4671 9 23.5146 9 22.2801C9 20.5471 10.0792 19.0681 11.8927 18.3239C13.1909 17.8032 14.179 17.4124 14.9462 17.1104C17.1841 16.227 17.4466 16.117 17.9726 15.7379C18.5297 15.3353 18.8949 14.8579 19.015 14.3887C18.6692 14.3021 18.3078 14.1125 17.9668 13.8153C16.9864 12.9588 16.5524 11.5523 16.9961 10.6724Z" fill="url(#paint0_linear_1_562)"/>
</g>
<defs>
<linearGradient id="paint0_linear_1_562" x1="21.7542" y1="-12.5395" x2="-10.8716" y2="-12.5395" gradientUnits="userSpaceOnUse">
<stop stop-color="#804AF3"/>
<stop offset="0.348958" stop-color="#71DDB1"/>
<stop offset="1" stop-color="#F4FAFF"/>
</linearGradient>
</defs>
</svg>
