<svg width="14" height="14" viewBox="0 0 14 14" fill="none" xmlns="http://www.w3.org/2000/svg">
<path id="Vector" d="M7 0C3.14004 0 0 3.14004 0 7C0 10.86 3.14004 14 7 14C10.86 14 14 10.86 14 7C14 3.14004 10.86 0 7 0ZM10.0625 7.58332H7.58332V10.0625C7.58332 10.3846 7.32205 10.6458 7 10.6458C6.67795 10.6458 6.41669 10.3846 6.41669 10.0625V7.58332H3.9375C3.61546 7.58332 3.3542 7.32205 3.3542 7C3.3542 6.67795 3.61546 6.41669 3.9375 6.41669H6.41669V3.9375C6.41669 3.61546 6.67795 3.3542 7 3.3542C7.32205 3.3542 7.58332 3.61546 7.58332 3.9375V6.41669H10.0625C10.3846 6.41669 10.6458 6.67795 10.6458 7C10.6458 7.32205 10.3846 7.58332 10.0625 7.58332Z" fill="#7A40F2"/>
</svg>
